HIERARCHY
ROOT SpineBase
{
  OFFSET 0.000000 0.000000 0.000000
  CHANNELS 6 Xposition Yposition Zposition Zrotation Xrotation Yrotation
  JOINT SpineMid
  {
    OFFSET -0.000000 32.592226 0.000000
    CHANNELS 3 Zrotation Xrotation Yrotation
    JOINT SpineShoulder
    {
      OFFSET 0.229630 24.184639 -0.862341
      CHANNELS 3 Zrotation Xrotation Yrotation
      JOINT Neck
      {
        OFFSET 0.190514 7.988347 -0.635833
        CHANNELS 3 Zrotation Xrotation Yrotation
        JOINT Head
        {
          OFFSET 5.081357 10.322670 5.646860
          CHANNELS 3 Zrotation Xrotation Yrotation
          End Site
          {
            OFFSET 0 0 0
          }
        }
      }
      JOINT ShoulderLeft
      {
        OFFSET -3.333250 -3.572758 -15.024356
        CHANNELS 3 Zrotation Xrotation Yrotation
        JOINT ElbowLeft
        {
          OFFSET -0.921289 -25.610451 -6.944343
          CHANNELS 3 Zrotation Xrotation Yrotation
          JOINT WristLeft
          {
            OFFSET 5.268859 -24.582242 -3.786817
            CHANNELS 3 Zrotation Xrotation Yrotation
            JOINT HandLeft
            {
              OFFSET 1.755446 -7.579261 0.435261
              CHANNELS 3 Zrotation Xrotation Yrotation
              JOINT HandTipLeft
              {
                OFFSET 2.487324 -6.300028 0.211370
                CHANNELS 3 Zrotation Xrotation Yrotation
                End Site
                {
                  OFFSET 0 0 0
                }
              }
              JOINT ThumbLeft
              {
                OFFSET -0.245795 -0.094512 1.775677
                CHANNELS 3 Zrotation Xrotation Yrotation
                End Site
                {
                  OFFSET 0 0 0
                }
              }
            }
          }
        }
      }
      JOINT ShoulderRight
      {
        OFFSET 4.818387 -6.070319 15.280096
        CHANNELS 3 Zrotation Xrotation Yrotation
        JOINT ElbowRight
        {
          OFFSET -1.620931 -25.250180 9.397541
          CHANNELS 3 Zrotation Xrotation Yrotation
          JOINT WristRight
          {
            OFFSET 8.972159 -23.963926 -0.104296
            CHANNELS 3 Zrotation Xrotation Yrotation
            JOINT HandRight
            {
              OFFSET 1.564050 -6.918356 0.417964
              CHANNELS 3 Zrotation Xrotation Yrotation
              JOINT HandTipRight
              {
                OFFSET 2.754154 -5.858360 -1.635309
                CHANNELS 3 Zrotation Xrotation Yrotation
                End Site
                {
                  OFFSET 0 0 0
                }
              }
              JOINT ThumbRight
              {
                OFFSET -3.182032 -1.142619 -1.313142
                CHANNELS 3 Zrotation Xrotation Yrotation
                End Site
                {
                  OFFSET 0 0 0
                }
              }
            }
          }
        }
      }
    }
  }
  JOINT HipLeft
  {
    OFFSET -0.806928 2.355519 -10.535162
    CHANNELS 3 Zrotation Xrotation Yrotation
    JOINT KneeLeft
    {
      OFFSET -4.779249 -37.166333 -1.140278
      CHANNELS 3 Zrotation Xrotation Yrotation
      JOINT AnkleLeft
      {
        OFFSET -7.716117 -37.524230 3.260950
        CHANNELS 3 Zrotation Xrotation Yrotation
        JOINT FootLeft
        {
          OFFSET 10.623984 -4.164774 -5.789665
          CHANNELS 3 Zrotation Xrotation Yrotation
          End Site
          {
            OFFSET 0 0 0
          }
        }
      }
    }
  }
  JOINT HipRight
  {
    OFFSET 3.484862 -0.319870 3.115096
    CHANNELS 3 Zrotation Xrotation Yrotation
    JOINT KneeRight
    {
      OFFSET 0.354303 -30.450498 7.734829
      CHANNELS 3 Zrotation Xrotation Yrotation
      JOINT AnkleRight
      {
        OFFSET -14.174491 -39.473721 5.609735
        CHANNELS 3 Zrotation Xrotation Yrotation
        JOINT FootRight
        {
          OFFSET 2.827580 -8.120530 -1.202848
          CHANNELS 3 Zrotation Xrotation Yrotation
          End Site
          {
            OFFSET 0 0 0
          }
        }
      }
    }
  }
}
MOTION
Frames: 6
Frame Time: 0.033333
-113.064390 82.317886 313.738052 0.000000 0.000000 -72.546283 -0.000000 -0.000000 72.546283 -0.000000 0.000000 0.000000 -0.000000 0.000000 0.000000 0.000000 0.000000 0.000000 -0.000000 0.000000 0.000000 -0.000000 0.000000 0.000000 -0.000000 0.000000 0.000000 -0.000000 0.000000 0.000000 0.000000 0.000000 0.000000 0.000000 0.000000 0.000000 -0.000000 0.000000 0.000000 -0.000000 0.000000 0.000000 -0.000000 0.000000 0.000000 -0.000000 0.000000 0.000000 0.000000 0.000000 0.000000 0.000000 0.000000 0.000000 -0.000000 -0.000000 72.546283 -0.000000 0.000000 0.000000 -0.000000 0.000000 0.000000 0.000000 0.000000 0.000000 -0.000000 -0.000000 72.546283 -0.000000 0.000000 0.000000 -0.000000 0.000000 0.000000 0.000000 0.000000 0.000000
-113.332111 82.369493 314.359837 -0.164365 -0.440702 -72.633746 -0.371555 0.288412 72.634049 -0.000000 0.000000 0.000000 -0.000000 0.000000 0.000000 0.000000 0.000000 0.000000 -0.000000 0.000000 0.000000 0.639821 -0.582530 -0.220078 -2.629744 -2.807701 -0.712260 6.038584 3.527903 0.755492 0.000000 0.000000 0.000000 0.000000 0.000000 0.000000 -0.000000 0.000000 0.000000 -3.621183 0.260769 0.123097 -1.982550 1.515577 0.018068 -0.056398 -3.242824 0.686131 0.000000 0.000000 0.000000 0.000000 0.000000 0.000000 -1.182203 0.707559 72.520676 -0.156265 -0.899091 0.119193 3.316630 1.525716 -0.699278 0.000000 0.000000 0.000000 -0.371555 0.288412 72.634049 -0.000000 0.000000 0.000000 1.417737 2.537825 0.637556 0.000000 0.000000 0.000000
-113.571011 82.418467 314.914794 -0.290938 -0.804179 -72.669563 -0.681016 0.517275 72.670596 -0.000000 0.000000 0.000000 -0.000000 0.000000 0.000000 0.000000 0.000000 0.000000 -0.000000 0.000000 0.000000 1.120743 -1.061202 -0.389471 -4.807842 -4.674698 -1.249414 10.702054 5.993241 0.889437 0.000000 0.000000 0.000000 0.000000 0.000000 0.000000 -0.000000 0.000000 0.000000 -6.621635 0.481976 0.242433 -4.413683 2.992365 0.177227 -0.147760 -6.421854 1.050664 0.000000 0.000000 0.000000 0.000000 0.000000 0.000000 -2.235749 1.300034 72.465741 -0.277708 -1.718186 0.225349 5.255243 2.399880 -1.132479 0.000000 0.000000 0.000000 -1.984255 1.090840 72.746063 -0.161024 -1.414615 -0.059166 2.700187 4.644648 1.093028 0.000000 0.000000 0.000000
-113.781088 82.464806 315.402922 -0.379913 -1.090918 -72.652798 -0.255021 0.029938 72.643262 -0.012970 0.130509 -0.010279 0.440102 0.708198 0.015429 0.000000 0.000000 0.000000 0.440102 0.708198 0.015429 1.442138 -1.432716 -0.510837 -6.548479 -5.678726 -1.589055 14.093261 7.394814 0.768951 0.000000 0.000000 0.000000 0.000000 0.000000 0.000000 0.440102 0.708198 0.015429 -9.045711 0.668871 0.353243 -6.996868 4.334968 0.440166 -0.199026 -9.325660 1.121439 0.000000 0.000000 0.000000 0.000000 0.000000 0.000000 -3.152923 1.776411 72.376335 -0.363035 -2.449655 0.318506 6.069657 2.771526 -1.301457 0.000000 0.000000 0.000000 -2.772287 1.435289 72.753999 -0.166530 -1.982648 -0.067956 3.872549 6.344528 1.394943 0.000000 0.000000 0.000000
-113.962343 82.508512 315.824221 -0.431422 -1.301300 -72.582585 -0.316905 0.043315 72.571675 -0.017295 0.155443 -0.011395 0.501931 0.830688 0.016513 0.000000 0.000000 0.000000 -0.484557 0.970121 0.294263 2.582965 -1.847082 -0.843495 -7.872123 -5.869330 -1.715254 16.280939 7.763363 0.619290 0.000000 0.000000 0.000000 0.000000 0.000000 0.000000 0.501931 0.830688 0.016513 -10.937877 0.826572 0.452570 -9.465263 5.468020 0.750271 -0.110097 -11.771753 0.993303 0.000000 0.000000 0.000000 0.000000 0.000000 0.000000 -3.927114 2.135663 72.247818 -0.411275 -3.086790 0.398710 5.864389 2.700457 -1.210124 0.000000 0.000000 0.000000 -3.423209 1.649785 72.694128 -0.121922 -2.458052 -0.061854 4.955050 7.661392 1.566054 0.000000 0.000000 0.000000
-114.114776 82.549583 316.178692 -0.445534 -1.435585 -72.458132 -0.367309 0.058726 72.447159 -0.021648 0.171092 -0.011462 0.521555 0.896743 0.016057 0.000000 0.000000 0.000000 -0.710497 1.078616 0.364478 2.831800 -2.048032 -0.938256 -8.800469 -5.257056 -1.611514 17.308443 7.108567 0.545234 0.000000 0.000000 0.000000 0.000000 0.000000 0.000000 0.521555 0.896743 0.016057 -12.337122 0.959600 0.538677 -11.610206 6.343712 1.045153 0.223724 -13.634170 0.797454 0.000000 0.000000 0.000000 0.000000 0.000000 0.000000 -4.553009 2.376692 72.076139 -0.421805 -3.623923 0.465985 4.617592 2.173563 -0.854586 0.000000 0.000000 0.000000 -3.937169 1.736417 72.562702 0.776102 -2.422418 -0.040057 5.150153 8.202544 1.702118 0.000000 0.000000 0.000000
